HIERARCHY
ROOT Hips
{
	OFFSET 0.000000 0.000000 0.000000
	CHANNELS 6 Xposition Yposition Zposition Xrotation Yrotation Zrotation
	JOINT LeftUpLeg_virtual
	{
		OFFSET 0.000000 0.000000 0.000000
		CHANNELS 3 Xrotation Yrotation Zrotation
		JOINT LeftUpLeg
		{
			OFFSET 15.427100 -6.655098 0.678600
			CHANNELS 3 Xrotation Yrotation Zrotation
			JOINT LeftLeg
			{
				OFFSET 4.081073 -39.591068 13.024000
				CHANNELS 3 Xrotation Yrotation Zrotation
				JOINT LeftFoot
				{
					OFFSET -4.081074 -37.707932 -15.979700
					CHANNELS 3 Xrotation Yrotation Zrotation
					JOINT LeftToeBase
					{
						OFFSET 5.346399 -15.068900 20.645000
						CHANNELS 3 Xrotation Yrotation Zrotation
						JOINT LeftToe_End
						{
							OFFSET 2.754700 0.931300 11.300900
							CHANNELS 3 Xrotation Yrotation Zrotation
							End Site
							{
								OFFSET 0 0 0
							}
						}
					}
				}
			}
		}
	}
	JOINT RightUpLeg_virtual
	{
		OFFSET 0.000000 0.000000 0.000000
		CHANNELS 3 Xrotation Yrotation Zrotation
		JOINT RightUpLeg
		{
			OFFSET -15.569500 -6.655098 0.678600
			CHANNELS 3 Xrotation Yrotation Zrotation
			JOINT RightLeg
			{
				OFFSET -4.081825 -39.591045 13.023800
				CHANNELS 3 Xrotation Yrotation Zrotation
				JOINT RightFoot
				{
					OFFSET 4.081824 -37.707954 -15.979600
					CHANNELS 3 Xrotation Yrotation Zrotation
					JOINT RightToeBase
					{
						OFFSET -5.346400 -15.068900 20.645000
						CHANNELS 3 Xrotation Yrotation Zrotation
						JOINT RightToe_End
						{
							OFFSET -2.754700 0.931300 11.300900
							CHANNELS 3 Xrotation Yrotation Zrotation
							End Site
							{
								OFFSET 0 0 0
							}
						}
					}
				}
			}
		}
	}
	JOINT Spine_virtual
	{
		OFFSET 0.000000 0.000000 0.000000
		CHANNELS 3 Xrotation Yrotation Zrotation
		JOINT Spine
		{
			OFFSET -0.279200 12.230698 -2.892100
			CHANNELS 3 Xrotation Yrotation Zrotation
			JOINT Spine1
			{
				OFFSET -0.232667 10.192268 -1.242267
				CHANNELS 3 Xrotation Yrotation Zrotation
				JOINT Spine1_split
				{
					OFFSET -0.232667 10.192268 -1.242267
					CHANNELS 3 Xrotation Yrotation Zrotation
					JOINT Spine2
					{
						OFFSET -0.232667 10.192268 -1.242267
						CHANNELS 3 Xrotation Yrotation Zrotation
						JOINT Neck_virtual
						{
							OFFSET 0.000000 0.000000 0.000000
							CHANNELS 3 Xrotation Yrotation Zrotation
							JOINT Neck
							{
								OFFSET -0.418800 17.814194 8.416900
								CHANNELS 3 Xrotation Yrotation Zrotation
								JOINT Head
								{
									OFFSET 0.000000 7.031097 3.806800
									CHANNELS 3 Xrotation Yrotation Zrotation
									JOINT HeadTop_End
									{
										OFFSET 0.000000 24.646606 12.978600
										CHANNELS 3 Xrotation Yrotation Zrotation
										End Site
										{
											OFFSET 0 0 0
										}
									}
								}
							}
						}
						JOINT LeftShoulder_virtual
						{
							OFFSET 0.000000 0.000000 0.000000
							CHANNELS 3 Xrotation Yrotation Zrotation
							JOINT LeftShoulder
							{
								OFFSET 8.476499 7.247704 -3.868750
								CHANNELS 3 Xrotation Yrotation Zrotation
								JOINT LeftShoulder_split
								{
									OFFSET 8.476499 7.247704 -3.868750
									CHANNELS 3 Xrotation Yrotation Zrotation
									JOINT LeftArm
									{
										OFFSET 9.308998 -2.777710 0.208600
										CHANNELS 3 Xrotation Yrotation Zrotation
										JOINT LeftForeArm
										{
											OFFSET 29.972298 0.000000 0.000000
											CHANNELS 3 Xrotation Yrotation Zrotation
											JOINT LeftHand
											{
												OFFSET 26.026505 0.000000 0.000000
												CHANNELS 3 Xrotation Yrotation Zrotation
												End Site
												{
													OFFSET 0 0 0
												}
											}
										}
									}
								}
							}
						}
						JOINT RightShoulder_virtual
						{
							OFFSET 0.000000 0.000000 0.000000
							CHANNELS 3 Xrotation Yrotation Zrotation
							JOINT RightShoulder
							{
								OFFSET -7.570500 7.247704 -3.868750
								CHANNELS 3 Xrotation Yrotation Zrotation
								JOINT RightShoulder_split
								{
									OFFSET -7.570500 7.247704 -3.868750
									CHANNELS 3 Xrotation Yrotation Zrotation
									JOINT RightArm
									{
										OFFSET -9.308998 -2.777710 0.208500
										CHANNELS 3 Xrotation Yrotation Zrotation
										JOINT RightForeArm
										{
											OFFSET -29.972300 0.000000 0.000000
											CHANNELS 3 Xrotation Yrotation Zrotation
											JOINT RightHand
											{
												OFFSET -26.026505 0.000000 0.000000
												CHANNELS 3 Xrotation Yrotation Zrotation
												End Site
												{
													OFFSET 0 0 0
												}
											}
										}
									}
								}
							}
						}
					}
				}
			}
		}
	}
}
MOTION
Frames: 5
Frame Time: 0.03333333
-3.290892 78.515236 0.565178 0.000000 0.000000 0.000000 -4.741433 -8.621388 5.624770 -64.915463 6.762044 6.454687 50.571294 3.994511 -3.482385 11.943691 -1.860943 2.000774 -0.987537 0.221164 0.485619 0.000000 0.000000 0.000000 -4.816108 -9.822968 5.438688 -11.813430 -8.461761 -5.211014 49.058974 9.675478 2.776988 -31.650957 1.830044 -8.059423 -3.089696 0.288022 0.141867 0.000000 0.000000 0.000000 -3.944119 -7.603933 4.564567 13.476290 0.706909 -3.918675 2.621566 0.177254 -0.964963 0.520361 -0.877297 0.307621 0.000000 0.000000 0.000000 2.696630 0.147133 -0.783591 1.890637 -0.555199 0.938017 23.137785 5.281053 -0.409387 0.000000 0.000000 0.000000 2.588050 0.207274 -0.782666 1.448137 1.748316 -9.224066 0.492151 -1.700221 -0.922434 13.963457 -25.685937 -53.931204 0.477937 -33.217276 0.223767 0.000000 0.000000 0.000000 2.667578 -0.141102 -0.989329 0.055374 5.879360 18.478510 -0.108616 3.647677 -1.776062 14.674909 19.897497 48.156119 1.293669 40.561444 -0.240156 0.000000 0.000000 0.000000 
-3.456097 78.912956 -0.165253 0.000000 0.000000 0.000000 -3.896467 -8.421201 6.126506 -65.053303 6.076958 5.424915 43.570111 4.439379 -2.807540 13.688762 -0.101990 1.553633 1.950590 0.519132 -1.008403 0.000000 0.000000 0.000000 -4.323700 -8.904017 5.941115 -12.068571 -8.528311 -4.697807 48.463689 8.559680 2.296058 -31.761589 0.974429 -9.303239 -3.005766 0.327106 0.271583 0.000000 0.000000 0.000000 -3.451444 -6.613805 5.222940 13.821410 0.624066 -4.419485 2.871286 0.223009 -1.031787 0.756458 -0.992037 0.648678 0.000000 0.000000 0.000000 2.835934 0.188837 -0.835980 2.195814 -0.590231 0.817287 22.991677 5.276655 -0.326561 0.000000 0.000000 0.000000 2.728694 0.282737 -0.869121 1.584578 1.818887 -9.304120 0.652031 -1.981476 -0.735312 14.729127 -26.715812 -54.125431 0.226263 -33.219356 -0.102282 0.000000 0.000000 0.000000 2.800075 -0.102959 -1.084335 -0.018960 6.618224 18.661185 -0.044128 3.779443 -1.465472 14.516211 19.222705 47.697212 1.038805 42.314641 -0.100806 0.000000 0.000000 0.000000 
-3.648525 79.347755 -1.191727 0.000000 0.000000 0.000000 -3.015517 -7.891074 6.257934 -65.212563 5.640003 5.227500 38.785294 3.977214 -2.052977 14.461899 1.104360 0.806177 3.777632 0.775738 -2.342585 0.000000 0.000000 0.000000 -3.665765 -7.633299 6.116540 -12.942650 -8.891924 -4.169451 47.994066 7.479310 1.958660 -31.465923 0.333910 -10.502125 -2.949590 0.353101 0.424516 0.000000 0.000000 0.000000 -2.768717 -5.576842 5.565919 14.127562 0.474581 -4.641740 3.086262 0.219304 -1.063343 1.045415 -1.049762 0.783337 0.000000 0.000000 0.000000 2.912918 0.167631 -0.870603 2.413862 -0.608632 0.788775 22.652734 5.291637 -0.164396 0.000000 0.000000 0.000000 2.819474 0.293566 -0.937489 1.717284 1.772990 -9.281460 0.868384 -2.276993 -0.623473 15.200062 -27.523695 -54.315823 -0.083298 -33.209046 -0.516018 0.000000 0.000000 0.000000 2.903175 -0.110603 -1.139797 -0.108459 7.248528 18.931753 0.211403 3.795302 -1.317596 13.948883 18.578268 47.190829 0.793189 44.157573 0.049930 0.000000 0.000000 0.000000 
-3.855874 79.978363 -2.307503 0.000000 0.000000 0.000000 -1.898636 -6.694250 6.162872 -64.900697 5.865613 5.417838 36.523859 2.873893 -1.468959 13.247910 1.498443 0.816951 3.468648 0.827879 -2.715988 0.000000 0.000000 0.000000 -2.796218 -6.261205 6.075793 -14.484473 -9.466858 -3.783254 47.281687 6.715011 1.736777 -30.200805 0.049729 -10.981473 -3.117024 0.323127 0.549425 0.000000 0.000000 0.000000 -1.624070 -4.472853 5.668585 14.247909 0.216599 -4.556178 3.236147 0.143828 -1.062075 1.174987 -1.211302 0.697681 0.000000 0.000000 0.000000 2.952662 0.061395 -0.868012 2.485718 -0.600274 0.836235 22.181210 5.337459 0.023575 0.000000 0.000000 0.000000 2.867607 0.213486 -0.964429 1.835404 1.561148 -9.128144 1.205457 -2.555611 -0.500108 15.376397 -28.178842 -54.454120 -0.329439 -33.179369 -0.904710 0.000000 0.000000 0.000000 2.981063 -0.176207 -1.131465 -0.200060 7.722288 19.328208 0.542713 3.668206 -1.298955 13.186387 18.091416 46.542371 0.655247 45.512993 0.140844 0.000000 0.000000 0.000000 
-4.107349 80.804268 -3.311539 0.000000 0.000000 0.000000 -0.525890 -4.783577 5.881290 -64.037880 6.613069 5.397960 36.899312 1.487204 -1.279115 10.433191 1.146736 1.800585 2.087593 0.666318 -2.518283 0.000000 0.000000 0.000000 -1.538346 -5.214319 5.926790 -16.597254 -10.069855 -3.643812 45.935515 6.347056 1.640461 -27.865753 0.154025 -10.475545 -3.480787 0.237121 0.602170 0.000000 0.000000 0.000000 0.010386 -3.449626 5.542877 14.110230 -0.142796 -4.238005 3.294093 -0.012257 -1.024298 1.150675 -1.465939 0.443470 0.000000 0.000000 0.000000 2.994817 -0.113825 -0.812347 2.451250 -0.624993 0.925055 21.703525 5.367164 0.138566 0.000000 0.000000 0.000000 2.889079 0.050013 -0.930507 1.936479 1.214456 -8.929531 1.613752 -2.788926 -0.417628 15.378888 -28.749373 -54.510562 -0.416731 -33.232866 -1.138496 0.000000 0.000000 0.000000 3.016334 -0.319792 -1.040755 -0.271400 8.017941 19.814886 0.863058 3.484792 -1.470466 12.482943 17.727012 45.919700 0.701564 46.026763 0.113280 0.000000 0.000000 0.000000 
